<svg width="50" height="50" viewBox="0 0 50 50" fill="none" xmlns="http://www.w3.org/2000/svg">
<g clip-path="url(#clip0_648_20)">
<path d="M15.9198 2.82915C21.6469 2.80102 27.4172 4.21613 32.3849 7.09894C33.1859 7.54581 33.9271 8.09008 34.7052 8.5729C33.613 8.21404 32.5391 7.77915 31.4052 7.56196C29.9292 7.21717 28.4109 7.0531 26.8958 7.04373C26.287 6.97915 25.7109 6.74373 25.1052 6.65415C23.6188 6.3229 22.113 6.08175 20.5958 5.94581C20.2849 5.91977 19.9641 5.87081 19.7031 5.68696C18.3563 4.85988 17.013 3.98175 15.9198 2.82915Z" fill="#C0C0C0"/>
<path d="M10.8641 6.28905C15.4281 6.08124 20.0349 6.25312 24.512 7.20989C22.5021 7.43593 20.5271 7.99218 18.6839 8.82499C18.501 8.90312 18.3078 8.96822 18.1068 8.95624C17.5031 8.95416 16.899 8.97603 16.2958 8.98489C16.0849 8.99374 15.887 8.91301 15.6938 8.84114C14.001 8.16978 12.3729 7.34218 10.8109 6.40676C10.824 6.37707 10.851 6.31822 10.8641 6.28905Z" fill="#C0C0C0"/>
<path d="M12.2328 9.90523C12.9859 9.81409 13.7422 9.73701 14.501 9.72294C15.374 9.65003 16.251 9.60211 17.1281 9.63701C15.5859 10.4089 14.2479 11.5292 12.9641 12.6651C10.7859 12.2422 8.6578 11.5782 6.58801 10.7828C8.44478 10.3542 10.3391 10.0959 12.2328 9.90523Z" fill="#C0C0C0"/>
<path d="M39.9922 11.9739C43.2578 14.7911 45.5813 18.688 46.4839 22.9067C47.7032 28.3932 46.4589 34.3859 43.112 38.9067C42.9969 39.0687 42.7912 39.1052 42.6151 39.1651C41.3198 39.487 39.9818 39.6078 38.649 39.576C38.7839 39.2682 38.9271 38.9469 38.911 38.6021C38.8459 37.6859 38.8948 36.7 39.399 35.901C39.812 35.7672 40.1448 35.426 40.3089 35.0302C40.4172 34.5911 40.3563 34.1317 40.237 33.7021C40.7828 33.4958 41.1683 32.8932 41.113 32.3109C40.9698 31.8672 40.7089 31.4661 40.6089 31.0062C40.5172 30.7588 40.6641 30.5067 40.8162 30.3219C41.149 29.988 41.6261 29.8771 42.0151 29.6271C42.2938 29.4719 42.5042 29.2281 42.7188 28.9989C42.7891 28.588 42.8032 28.1422 42.5891 27.7687C41.9349 26.425 40.8532 25.2338 40.6813 23.6969C40.574 22.9062 40.9688 22.1771 41.038 21.4031C41.4698 18.2479 41.361 14.9021 39.9922 11.9739Z" fill="#C0C0C0"/>
<path d="M4.29686 16.2021C6.65988 15.4052 9.06405 14.712 11.512 14.2302C10.6437 15.3068 9.83488 16.4391 9.20415 17.6729C7.78801 17.712 6.39218 17.4302 4.9979 17.224C4.32186 17.0688 3.6302 16.9688 2.97186 16.7458C3.37603 16.4828 3.8578 16.3912 4.29686 16.2021Z" fill="#C0C0C0"/>
<path d="M3.75 20.6682C5.40677 19.8813 7.08386 19.1328 8.78906 18.4568C8.21875 19.6349 7.79375 20.875 7.43125 22.1302C5.27292 22.2761 3.10677 22.3063 0.944794 22.2479C1.81615 21.6141 2.79219 21.15 3.75 20.6682Z" fill="#C0C0C0"/>
<path d="M2.5 27.7771C3.96406 26.6099 5.42812 25.4318 7.00885 24.4229C6.89323 25.2161 6.80417 26.0151 6.81875 26.8182C5.38594 27.1651 3.94687 27.4948 2.5 27.7771Z" fill="#C0C0C0"/>
<path d="M25.5141 24.7151C25.9068 24.501 26.449 24.85 26.3839 25.3021C26.462 25.9328 25.4542 26.1151 25.2281 25.5698C25.0359 25.2672 25.2172 24.8687 25.5141 24.7151Z" fill="#C0C0C0"/>
<path d="M4.22708 32.8688C5.15416 32.038 6.10677 31.2359 7.03125 30.4031C7.20989 31.0651 7.30677 31.7458 7.48385 32.4078C6.40625 32.6042 5.32604 32.8531 4.22708 32.8688Z" fill="#C0C0C0"/>
<path d="M8.21512 37.2969C8.48022 36.9839 8.7422 36.6688 9.01876 36.3651C9.11408 36.5531 9.20783 36.7422 9.30001 36.9318C8.93699 37.051 8.58283 37.1958 8.21512 37.2969Z" fill="#C0C0C0"/>
<path d="M23.4161 8.27189C24.7828 8.03491 26.1729 7.87085 27.562 7.94689C29.7 8.52814 31.7771 9.33491 33.763 10.3182C33.326 10.7219 32.8828 11.1208 32.4141 11.4891C29.6979 10.238 26.7338 9.6422 23.7859 9.2448C22.775 9.10887 21.7531 9.07605 20.737 8.9948C21.6 8.65314 22.5109 8.46095 23.4161 8.27189Z" fill="#C0C0C0"/>
<path d="M30.6682 8.34221C31.0219 8.32503 31.363 8.42919 31.7042 8.50888C32.724 8.75107 33.7078 9.11721 34.6813 9.50315C34.486 9.65211 34.2948 9.80523 34.1089 9.96305C33.1578 9.37919 32.1438 8.90784 31.1182 8.47398C30.9698 8.4219 30.8182 8.38388 30.6682 8.34221Z" fill="#C0C0C0"/>
<path d="M18.7812 9.77292C19.212 9.52188 19.725 9.64479 20.1958 9.64323C24.1828 9.775 28.1682 10.4469 31.925 11.8078C31.6042 12.2271 31.2219 12.5938 30.8838 12.9979C28.1151 12.5599 25.3062 12.374 22.5052 12.4109C19.9932 12.4182 17.4771 12.599 15 13.0182C14.701 13.0339 14.4109 12.937 14.1198 12.8859C15.501 11.6182 17.0989 10.5938 18.7812 9.77292Z" fill="#C0C0C0"/>
<path d="M14.6922 13.6313C17.7661 13.136 20.8818 12.9099 23.9948 12.9771C26.1437 13.0042 28.2948 13.1932 30.4088 13.5839C30.0698 14.174 29.6099 14.686 29.2219 15.2438C26.8401 15.9771 24.3932 16.475 21.9411 16.9099C19.1432 17.3802 16.3172 17.7151 13.4792 17.7839C12.3771 17.861 11.2687 17.8479 10.1682 17.7682C10.9719 16.412 11.889 15.113 12.989 13.9802C13.5229 13.7563 14.1208 13.7188 14.6922 13.6313Z" fill="#C0C0C0"/>
<path d="M20.737 18.0479C22.8552 17.4578 25.0161 17.0208 27.2 16.7651C27.6313 16.7281 28.0641 16.7089 28.4958 16.7208C27.9641 17.5729 27.4172 18.4172 26.8359 19.237C26.675 19.4521 26.413 19.549 26.1958 19.6948C22.9729 21.6792 19.4958 23.2359 15.8969 24.399C13.1922 25.2818 10.4339 25.9911 7.66302 26.6339C7.73594 25.6792 7.84584 24.7281 7.98386 23.7792C11.9182 21.25 16.2411 19.3292 20.737 18.0479Z" fill="#C0C0C0"/>
<path d="M12.5969 18.4589C14.3698 18.3662 16.1448 18.3042 17.9172 18.1802C17.3771 18.2849 16.8661 18.4959 16.3448 18.6672C14 19.5578 11.7578 20.6959 9.5448 21.8719C9.18282 22.0068 8.78021 21.95 8.40521 22.0391C8.74323 20.8063 9.22292 19.6151 9.79792 18.475C10.7302 18.4552 11.6641 18.4698 12.5969 18.4589Z" fill="#C0C0C0"/>
<path d="M22.3781 22.4651C23.7271 21.8969 25.1161 21.4062 26.4062 20.712C25.7391 21.6792 25.2312 22.7432 24.6802 23.7771C24.5812 23.9682 24.3969 24.0922 24.2359 24.226C21.4651 26.475 18.3089 28.174 15.2 29.8979C14.3609 30.3328 13.549 30.8229 12.688 31.2151C11.2708 31.6651 9.80104 31.9151 8.35677 32.2588C8.09791 31.4328 7.94583 30.576 7.85208 29.7161C8.67916 29.05 9.48906 28.363 10.3448 27.7338C10.9891 27.2578 11.6391 26.762 12.401 26.4891C15.7161 25.1198 19.0609 23.8271 22.3781 22.4651Z" fill="#C0C0C0"/>
<path d="M13.6438 31.5459C17.2318 29.3938 20.9339 27.4339 24.4891 25.2261C23.113 27.3188 21.6792 29.424 19.763 31.0662C17.0828 33.537 13.799 35.2532 10.413 36.5412C10.3052 36.5641 10.1761 36.6282 10.0708 36.5672C9.88595 36.2922 9.75626 35.9849 9.60678 35.6901C10.337 34.8282 11.1 33.9933 11.8849 33.1813C12.425 32.5912 12.9922 32.0141 13.6438 31.5459Z" fill="#C0C0C0"/>
<path d="M27.8969 42.3208C28.089 40.9802 28.5219 39.5901 29.4922 38.6021C30.2088 40.5718 31.6172 42.3302 33.5151 43.2672C35.5568 44.3088 37.9458 44.3989 40.1739 44.0562C38.414 44.7802 36.5078 45.2411 34.5948 45.1067C32.9568 45.001 31.3562 44.3588 30.112 43.2849C29.8448 43.0619 29.6187 42.7932 29.3359 42.589C29.6 43.5 30.0979 44.3521 30.8208 44.9729C31.7448 45.7838 32.9458 46.164 34.1198 46.4458C34.4552 46.5208 34.788 46.626 35.1349 46.639C34.1458 46.9349 33.1208 47.1302 32.0901 47.1932C30.638 47.2937 29.175 46.7989 28.063 45.864C27.863 44.6958 27.7562 43.5021 27.8969 42.3208Z" fill="#C0C0C0"/>
<path d="M25.9912 23.7818C28.4063 18.2891 31.7229 13.0531 36.3891 9.20105C38.1099 10.4479 39.3469 12.3219 39.8859 14.3719C38.4469 15.0151 37.0912 15.825 35.7609 16.6662C32.3672 18.8589 29.1958 21.3849 26.1938 24.0859C26.1208 24.0781 25.9771 24.0609 25.9042 24.0531C25.9302 23.962 25.9589 23.8708 25.9912 23.7818ZM35.4901 12.824C35.3912 13.0469 35.3109 13.2781 35.249 13.5141C36.4318 13.6432 37.6109 13.7969 38.7912 13.9479C38.4 12.562 37.5469 11.3458 36.4708 10.4031C36.1068 11.1938 35.8271 12.0208 35.4901 12.824ZM33.187 14.1938C32.9641 14.8391 32.6802 15.4688 32.5391 16.1391C33.2021 16 33.8672 15.8688 34.5339 15.75C34.7188 15.0813 34.8229 14.3938 34.9938 13.7219C34.3958 13.8938 33.7849 14.0188 33.187 14.1938ZM30.4531 17.287C30.2729 17.8141 30.1849 18.3651 30.074 18.9089C30.5662 18.762 31.0672 18.5781 31.5042 18.3162C31.7948 17.6891 32.0318 17.0359 32.2781 16.3901C31.6552 16.6589 31.0609 16.988 30.4531 17.287ZM28.4828 19.8979C28.3948 20.3318 28.3 20.7651 28.2292 21.2031C28.599 21.0563 28.9688 20.9068 29.325 20.7302C29.5271 20.2063 29.7813 19.6969 29.9099 19.149C29.4313 19.3922 28.9578 19.6469 28.4828 19.8979Z" fill="#C0C0C0"/>
<path d="M25.2552 26.4187C25.5813 26.4291 25.913 26.4437 26.2292 26.3411C27.1401 28.5682 27.1661 31.1031 26.5089 33.4021C26.026 35.1109 25.2052 36.7172 24.151 38.1437C24.0792 38.2401 23.9938 38.325 23.8979 38.3979C23.7708 37.4682 23.7328 36.5302 23.6589 35.5948C23.6042 32.476 24.0432 29.3109 25.2552 26.4187Z" fill="#C0C0C0"/>
<path d="M30.212 38.3031C31.5062 38.9349 32.799 39.5948 34.1891 39.9958C35.9 40.538 37.7208 40.5672 39.4932 40.389C40.4302 40.2479 41.376 40.1771 42.3089 40.0067C41.2187 41.2317 39.9729 42.3078 38.6302 43.2437C37.0099 43.2489 35.375 42.9109 33.924 42.1828C32.3021 41.3541 30.9312 39.9859 30.212 38.3031Z" fill="#C0C0C0"/>
<path d="M34.1219 19.0162C36.0578 17.7271 38.0359 16.487 40.1401 15.488C40.3641 16.7078 40.3958 17.9578 40.3589 19.1969C40.3432 19.938 40.175 20.663 40 21.3802C39.7042 21.337 39.4198 21.2432 39.1412 21.138C37.4281 20.5328 35.749 19.8261 34.1219 19.0162Z" fill="#C0C0C0"/>
<path d="M26.6063 24.4151C28.0042 23.3901 29.3912 22.351 30.799 21.3391C32.5719 22.5437 34.4208 23.6531 36.388 24.5151C37.6448 25.0391 38.9599 25.5432 40.338 25.5708C40.7708 26.3609 41.2281 27.138 41.7318 27.8849C41.8938 28.1422 42.0099 28.5937 41.6958 28.7818C41.0063 29.2359 40.3021 29.6739 39.65 30.1818C39.5031 30.8562 39.7979 31.5062 40.1182 32.0802C40.2188 32.275 40.375 32.5781 40.138 32.7391C39.6391 33.101 39.0031 33.1729 38.413 33.2812C38.7031 33.5031 38.9901 33.7302 39.287 33.9432C39.3198 34.4562 39.137 35.012 38.6922 35.3052C38.4688 35.4489 38.224 35.6068 38.1578 35.8849C37.9349 36.637 37.974 37.4302 37.9719 38.2052C37.9302 38.5302 37.8802 38.901 37.6469 39.1479C36.8682 39.6187 35.9151 39.4099 35.088 39.1932C33.713 38.75 32.3839 38.176 31.0182 37.7062C30.512 37.5198 29.999 37.301 29.4469 37.3432C28.2302 38.4542 27.3662 39.9568 27.0969 41.5891C26.8328 42.8979 26.9219 44.2609 27.2599 45.5469C25.8781 44.3698 25.0589 42.6802 24.4958 40.9859C24.325 40.3932 24.1412 39.801 24.0412 39.1922C23.9901 39.0338 24.137 38.926 24.2219 38.8198C25.9698 36.9609 27.1151 34.5437 27.4511 32.0151C27.7011 29.9609 27.5281 27.8422 26.8438 25.8849C26.7969 25.6219 26.9063 25.3578 26.8662 25.0937C26.8563 24.8437 26.7089 24.6338 26.6063 24.4151Z" fill="#C0C0C0"/>
<path d="M35.6182 22.1063C36.55 22.7563 37.6641 23.1458 38.8042 23.1662C38.5401 23.3542 38.2792 23.5448 38.0281 23.749C36.988 23.7662 36.0099 23.0521 35.6182 22.1063Z" fill="#C0C0C0"/>
<path d="M22.8021 28.9891C23.0239 28.724 23.226 28.4432 23.426 28.162C23.0859 29.4589 22.9078 30.7891 22.6989 32.1109C22.4687 34.0172 22.3672 35.951 22.5922 37.863C22.8448 40.0068 23.4568 42.1432 24.6172 43.9792C25.5239 45.424 26.8078 46.6401 28.3328 47.413C28.4568 47.4719 28.5932 47.5021 28.725 47.538C27.3937 47.6318 26.038 47.374 24.812 46.85C22.9489 46.0188 21.5312 44.4531 20.4302 42.775C19.8901 41.9771 19.45 41.1198 18.9828 40.2802C19.0578 41.4422 19.3349 42.6063 19.8391 43.6599C20.4208 44.8188 21.275 45.8318 22.2661 46.662C20.5802 46.2552 18.9552 45.5521 17.5068 44.5948C16.1338 43.5839 14.788 42.524 13.5948 41.301C12.462 40.15 11.4948 38.8458 10.6271 37.487C12.2391 36.8412 13.8588 36.2052 15.3989 35.3979C16.7812 34.674 18.0818 33.7922 19.2521 32.7599C20.5562 31.6229 21.7 30.3188 22.8021 28.9891ZM20.4792 37.4979C20.5901 38.987 20.8302 40.4859 21.4281 41.8651C22.0687 43.3359 23.076 44.7141 24.4687 45.5469C23.6411 44.4682 22.7969 43.3802 22.2641 42.1162C21.0838 39.3641 20.9281 36.3219 20.8219 33.3698C20.4891 34.712 20.438 36.1182 20.4792 37.4979ZM15.1682 37.2521C15.2292 37.9021 15.2432 38.563 15.4328 39.1932C15.9109 41.1568 16.9687 43.0901 18.7068 44.201C18.6182 44.0271 18.513 43.863 18.4021 43.7042C17.0359 41.712 15.9969 39.5151 15.1682 37.2521Z" fill="#C0C0C0"/>
</g>
<defs>
<clipPath id="clip0_648_20">
<rect width="50" height="50" fill="white"/>
</clipPath>
</defs>
</svg>
